<?xml version="1.0" standalone="no"?><!DOCTYPE svg PUBLIC "-//W3C//DTD SVG 1.1//EN" "http://www.w3.org/Graphics/SVG/1.1/DTD/svg11.dtd"><svg t="1688978986506" class="icon" viewBox="0 0 1024 1024" version="1.1" xmlns="http://www.w3.org/2000/svg" p-id="1181" xmlns:xlink="http://www.w3.org/1999/xlink" width="200" height="200"><path d="M271.111809 910.18408a39.999972 39.999972 0 0 1 54.479962-15.239989c56.79996 31.967978 120.479915 48.863966 184.143871 48.863965 61.151957 0 121.839914-14.999989 175.495876-43.367969a39.999972 39.999972 0 1 1 37.399974 70.73595c-65.135954 34.439976-138.759902 52.639963-212.89585 52.639963-77.383946 0-154.623891-20.447986-223.383843-59.143958a39.999972 39.999972 0 0 1-15.23999-54.487962zM510.343641 0.00072a78.887945 78.887945 0 0 1 69.887951 41.671971c38.615973 72.055949 57.51996 186.135869 57.791959 348.767754 0.032 17.223988-9.935993 32.159977-26.231981 37.631974-2.895998 1.191999-24.447983 10.687992-41.311971 35.503975 206.863855 115.335919 364.967743 234.775835 426.1117 287.511798 28.27198 24.391983 35.647975 65.783954 17.527988 98.431931a78.959944 78.959944 0 0 1-70.423951 40.767971c-54.031962-0.895999-157.07189-23.391984-341.08776-125.535912-15.039989-8.343994-23.247984-24.207983-20.127986-41.087971 0.352-3.119998 2.295998-25.855982-11.199992-52.239963-178.687874 104.919926-341.48776 176.199876-431.359696 210.103852l-6.079996 2.279999c-10.943992 4.063997-20.687985 7.535995-29.13598 10.399992a78.511945 78.511945 0 0 1-25.231982 4.159997c-27.495981 0-53.999962-14.36799-68.487952-39.007972a78.951944 78.951944 0 0 1 0.616-81.359943c28.45598-46.559967 100.319929-124.367913 281.095802-230.727838 14.87999-8.751994 32.807977-7.719995 45.767968 3.631998 2.519998 1.911999 21.479985 15.551989 51.527964 17.239988-0.216-287.279798 38.479973-483.41566 42.90397-504.903645 7.543995-36.575974 40.111972-63.175956 77.439945-63.239956zM312.78378 628.448278C157.975889 722.096212 102.175928 786.352167 83.287941 814.400147l-1.127999 1.711999-1.039999 1.607999c58.415959-20.023986 193.007864-74.911947 350.407754-159.519888a120.895915 120.895915 0 0 1-11.383992-11.367992 185.759869 185.759869 0 0 1-107.359925-18.375987zM628.319558 589.840305a119.135916 119.135916 0 0 1-4.159997 16.015989 186.303869 186.303869 0 0 1 38.063973 100.319929c166.519883 89.855937 249.839824 102.983928 280.399803 104.047927-46.783967-40.079972-161.999886-127.91991-314.303779-220.383845z m-117.959917-62.039956c-22.055984 0-39.999972 17.951987-39.999972 40.007972 0 22.063984 17.943987 39.999972 39.999972 39.999972 22.063984 0 40.007972-17.935987 40.007972-39.999972 0-22.055984-17.943987-39.999972-39.999972-39.999972z m194.423863-328.087769a39.999972 39.999972 0 0 1 55.415961-11.423992c60.479957 39.815972 111.199922 93.727934 146.639897 155.90389 36.719974 64.407955 57.07196 137.935903 58.831959 212.61585a40.007972 40.007972 0 0 1-79.991944 1.887999c-2.879998-122.127914-66.239953-235.615834-169.479881-303.575786a39.999972 39.999972 0 0 1-11.415992-55.407961z m-425.015701-24.543983a40.007972 40.007972 0 0 1 40.399972 69.063951c-111.135922 65.007954-180.719873 179.855874-186.143869 307.223784a40.007972 40.007972 0 0 1-79.935944-3.407997c6.583995-154.679891 90.959936-294.071793 225.679841-372.879738z m231.039838-93.599934c-5.039996 25.015982-31.311978 163.895885-38.815973 372.551738a118.991916 118.991916 0 0 1 15.00799-4.023997 186.847869 186.847869 0 0 1 70.82395-83.407942c-1.879999-132.919907-17.671988-228.743839-47.007967-285.119799z" fill="#3C9D17" p-id="1182"></path></svg>