<?xml version="1.0" standalone="no"?><!DOCTYPE svg PUBLIC "-//W3C//DTD SVG 1.1//EN" "http://www.w3.org/Graphics/SVG/1.1/DTD/svg11.dtd"><svg t="1688981015215" class="icon" viewBox="0 0 1024 1024" version="1.1" xmlns="http://www.w3.org/2000/svg" p-id="1324" xmlns:xlink="http://www.w3.org/1999/xlink" width="200" height="200"><path d="M873.993172 0c38.599698 0 69.999453 31.399755 69.999453 69.999453 0 3.687971-0.295998 7.303943-0.847993 10.847915A70.255451 70.255451 0 0 1 953.992547 79.999375c38.599698 0 69.999453 31.399755 69.999453 69.999453s-31.399755 69.999453-69.999453 69.999453a70.023453 70.023453 0 0 1-59.791533-33.639737l-51.543597 51.543597a361.917173 361.917173 0 0 1 27.463785 46.583636c22.479824 45.655643 33.871735 93.623269 33.871736 142.574887a39.999688 39.999688 0 1 1-79.999375 0C823.993563 279.485817 676.194717 144.574871 513.899985 143.998875h-1.335989c-1.543988 0-3.063976-0.111999-4.567965-0.279998a40.535683 40.535683 0 0 1-4.567964 0.279998h-1.351989C339.789345 144.59087 191.9985 279.493816 191.9985 427.060664c0 35.89572 12.455903 98.959227 36.255717 150.038827a39.983688 39.983688 0 0 1-21.071836 53.903579 36.391716 36.391716 0 0 0-20.607839 21.439833 36.367716 36.367716 0 0 0 1.847986 29.43177l15.32788 28.11978H231.998188c72.447434 0 134.206952 54.159577 143.654877 125.999016l5.695956 43.279662c16.67187 9.127929 55.551566 24.719807 126.64701 24.719807s109.975141-15.591878 126.639011-24.719807l5.703955-43.279662C649.786924 764.15403 711.546441 709.994453 783.993875 709.994453h28.239779l15.335881-28.11978a36.367716 36.367716 0 0 0 1.847985-29.43177 36.399716 36.399716 0 0 0-20.607839-21.439833 39.999688 39.999688 0 1 1 30.367763-74.015421 117.039086 117.039086 0 0 1 65.407489 68.063468 117.055086 117.055086 0 0 1-6.591949 94.767259l-26.319794 48.295623a39.999688 39.999688 0 0 1-35.343724 21.879829h-31.759752l47.631628 47.639628A70.023453 70.023453 0 0 1 911.992875 803.993719c38.599698 0 69.999453 31.399755 69.999453 69.999453S950.592573 943.992625 911.992875 943.992625c-3.687971 0-7.303943-0.295998-10.847915-0.847993 0.559996 3.535972 0.847993 7.159944 0.847993 10.847915 0 38.599698-31.399755 69.999453-69.999453 69.999453s-69.999453-31.399755-69.999453-69.999453a70.023453 70.023453 0 0 1 33.639737-59.791533l-69.199459-69.199459a64.359497 64.359497 0 0 0-6.783947 21.423832l-7.999938 60.791525a39.999688 39.999688 0 0 1-11.375911 23.06382c-5.495957 5.495957-57.59955 53.71158-192.278498 53.711581s-186.782541-48.215623-192.278498-53.711581a39.999688 39.999688 0 0 1-11.375911-23.06382l-7.999937-60.791525a64.503496 64.503496 0 0 0-3.767971-14.783884l-63.9035 62.759509a70.015453 70.015453 0 0 1 33.327739 59.591535c0 38.599698-31.399755 69.999453-69.999453 69.999453s-69.999453-31.399755-69.999453-69.999453c0-3.687971 0.287998-7.303943 0.847993-10.847915A70.255451 70.255451 0 0 1 111.999125 943.992625c-38.599698 0-69.999453-31.399755-69.999453-69.999453s31.399755-69.999453 69.999453-69.999453a70.023453 70.023453 0 0 1 59.975531 33.951735l48.831619-47.951626H179.998594a39.999688 39.999688 0 0 1-35.119726-20.855837l-26.87979-49.319615a117.047086 117.047086 0 0 1-6.583948-94.767259 116.911087 116.911087 0 0 1 31.031757-46.279639C124.007031 528.715869 111.999125 470.340325 111.999125 427.060664c0-48.959618 11.399911-96.919243 33.871735-142.574887a362.685167 362.685167 0 0 1 30.78376-51.255599l-46.863634-46.871634A70.023453 70.023453 0 0 1 69.999453 219.998281C31.399755 219.998281 0 188.598527 0 149.998828S31.399755 79.999375 69.999453 79.999375c4.367966 0 8.639933 0.423997 12.7999 1.199991a68.911462 68.911462 0 0 1-0.799994-10.471919C81.999359 31.727752 112.727119 0 150.502824 0c38.751697 0 71.495441 32.391747 71.495442 70.727447 0 25.519801-14.02389 47.839626-34.839728 59.863533l42.743666 42.743666c1.29599-1.199991 2.58398-2.399981 3.903969-3.591972 73.911423-66.295482 170.566667-104.743182 265.573926-105.727174A39.119694 39.119694 0 0 1 500.556089 63.9995h2.863978c1.543988 0 3.063976 0.111999 4.567964 0.279998 1.503988-0.167999 3.023976-0.279998 4.567965-0.279998h3.463973l0.591995 0.016c94.999258 0.983992 191.662503 39.439692 265.565925 105.727174 2.727979 2.455981 5.407958 4.935961 8.055937 7.439942l47.39163-47.39163A70.015453 70.015453 0 0 1 803.993719 69.999453c0-38.599698 31.399755-69.999453 69.999453-69.999453zM486.956196 616.363185a35.423723 35.423723 0 0 1 50.079608 0s63.735502 117.631081 32.191749 117.631081L511.996 763.994031l-57.231553-29.999765c-31.543754 0 32.191749-117.631081 32.191749-117.631081zM307.997594 469.996328c21.455832 0 48.879618 9.999922 72.383434 9.999922H411.996781c29.887767 0.479996 49.999609 5.351958 49.99961 38.759697 0 44.183655-81.415364 79.239381-127.863001 79.239381C287.685752 597.995328 271.997875 540.17978 271.997875 495.996125c0-21.82383 14.263889-25.999797 35.999719-25.999797z m403.332849 1.999985c18.079859 0.159999 30.66376 6.079953 30.66376 25.999796 0 44.183655-15.687877 99.999219-62.135514 99.999219S551.995688 562.939602 551.995688 518.755947c0-34.151733 21.007836-38.471699 51.999593-38.759697h29.615769c25.503801 0 55.695565-8.199936 77.719393-7.999937z" fill="#3C9D17" p-id="1325"></path></svg>